<mxfile host="app.diagrams.net" modified="2024-05-24T12:12:17.272Z" agent="Mozilla/5.0 (Macintosh; Intel Mac OS X 10_15_7) AppleWebKit/537.36 (KHTML, like Gecko) Chrome/124.0.0.0 Safari/537.36" version="24.4.7" etag="3W9fCemuYPLLmoA36-5c" type="github">
  <diagram name="第 1 页" id="Z7Th33rIA3lxe8Ifl9V_">
    <mxGraphModel>
      <root>
        <mxCell id="0" />
        <mxCell id="1" parent="0" />
      </root>
    </mxGraphModel>
  </diagram>
</mxfile>
